<svg width="184" height="48" viewBox="0 0 184 48" fill="none" xmlns="http://www.w3.org/2000/svg">
<path d="M27.808 30.28C27.808 31.0267 27.5413 31.6667 27.008 32.2C26.4747 32.7333 25.8347 33 25.088 33C24.32 33 23.6693 32.7333 23.136 32.2C22.624 31.6667 22.368 31.0267 22.368 30.28V19.4C22.368 18.6747 22.1013 18.056 21.568 17.544C21.0347 17.0107 20.4053 16.744 19.68 16.744C18.9333 16.744 18.304 17 17.792 17.512C17.28 18.024 17.024 18.6533 17.024 19.4V30.248C17.024 30.9947 16.7467 31.6453 16.192 32.2C15.6587 32.7333 15.0187 33 14.272 33C13.504 33 12.8533 32.7333 12.32 32.2C11.808 31.6667 11.552 31.0267 11.552 30.28V19.4C11.552 18.6533 11.2853 18.024 10.752 17.512C10.24 17 9.62133 16.744 8.896 16.744C8.14933 16.744 7.50933 17.0107 6.976 17.544C6.464 18.056 6.208 18.6747 6.208 19.4V30.248C6.208 30.9947 5.94133 31.6347 5.408 32.168C4.87467 32.7013 4.23467 32.968 3.488 32.968C2.72 32.968 2.06933 32.7013 1.536 32.168C1.024 31.6347 0.768 30.9947 0.768 30.248V19.4C0.768 17.16 1.55733 15.2507 3.136 13.672C4.71467 12.0933 6.63467 11.304 8.896 11.304C10.944 11.304 12.736 11.9867 14.272 13.352C15.8293 11.9867 17.632 11.304 19.68 11.304C21.92 11.304 23.8293 12.0933 25.408 13.672C27.008 15.2507 27.808 17.16 27.808 19.4V30.28ZM45.3313 24.872C45.3313 27.112 44.5313 29.032 42.9313 30.632C41.3526 32.2107 39.4539 33 37.2353 33C34.9953 33 33.0753 32.2107 31.4753 30.632C29.8966 29.032 29.1073 27.112 29.1073 24.872V13.992C29.1073 13.2453 29.3633 12.6053 29.8753 12.072C30.4086 11.5387 31.0593 11.272 31.8273 11.272C32.5739 11.272 33.2139 11.5387 33.7473 12.072C34.2806 12.6053 34.5473 13.2453 34.5473 13.992V16.776H37.2353C39.4753 16.776 41.3846 17.5653 42.9633 19.144C44.5419 20.7227 45.3313 22.632 45.3313 24.872ZM39.8913 24.872C39.8913 24.1253 39.6246 23.496 39.0913 22.984C38.5793 22.472 37.9606 22.216 37.2353 22.216H34.5473V24.872C34.5473 25.5973 34.8033 26.2267 35.3153 26.76C35.8486 27.2933 36.4886 27.56 37.2353 27.56C37.9606 27.56 38.5793 27.304 39.0913 26.792C39.6246 26.2587 39.8913 25.6187 39.8913 24.872ZM58.067 30.28C58.067 31.0267 57.8003 31.6667 57.267 32.2C56.7337 32.7333 56.0937 33 55.347 33H54.675C52.435 33 50.515 32.2107 48.915 30.632C47.3363 29.032 46.547 27.112 46.547 24.872V14.024C46.547 13.2773 46.8137 12.6373 47.347 12.104C47.8803 11.5707 48.531 11.304 49.299 11.304C50.0457 11.304 50.6857 11.5707 51.219 12.104C51.7523 12.6373 52.019 13.2773 52.019 14.024V16.744H55.347C56.0937 16.744 56.7337 17.0107 57.267 17.544C57.8003 18.0773 58.067 18.7173 58.067 19.464C58.067 20.2107 57.8003 20.8507 57.267 21.384C56.7337 21.9173 56.0937 22.184 55.347 22.184H51.987V24.872C51.987 25.5973 52.243 26.2267 52.755 26.76C53.2883 27.2933 53.9283 27.56 54.675 27.56H55.347C56.0937 27.56 56.7337 27.8267 57.267 28.36C57.8003 28.8933 58.067 29.5333 58.067 30.28ZM64.9268 13.992C64.9268 14.7387 64.6601 15.3787 64.1268 15.912C63.5934 16.4453 62.9534 16.712 62.2068 16.712C61.4388 16.712 60.7881 16.4453 60.2548 15.912C59.7428 15.3787 59.4868 14.7387 59.4868 13.992C59.4868 13.2453 59.7428 12.6053 60.2548 12.072C60.7881 11.5387 61.4388 11.272 62.2068 11.272C62.9534 11.272 63.5934 11.5387 64.1268 12.072C64.6601 12.6053 64.9268 13.2453 64.9268 13.992ZM64.9268 30.28C64.9268 31.0267 64.6601 31.6667 64.1268 32.2C63.5934 32.7333 62.9534 33 62.2068 33C61.4388 33 60.7881 32.7333 60.2548 32.2C59.7428 31.6667 59.4868 31.0267 59.4868 30.28V21.448C59.4868 20.7013 59.7428 20.0613 60.2548 19.528C60.7881 18.9947 61.4388 18.728 62.2068 18.728C62.9534 18.728 63.5934 18.9947 64.1268 19.528C64.6601 20.0613 64.9268 20.7013 64.9268 21.448V30.28ZM88.6073 30.28C88.6073 31.0267 88.3406 31.6667 87.8073 32.2C87.2739 32.7333 86.6339 33 85.8873 33H80.6393C78.3993 33 76.4793 32.2107 74.8793 30.632C73.3006 29.032 72.5113 27.112 72.5113 24.872C72.5113 22.632 73.3006 20.7227 74.8793 19.144C76.4579 17.5653 78.3779 16.776 80.6393 16.776H85.8873C86.6339 16.776 87.2739 17.0427 87.8073 17.576C88.3406 18.1093 88.6073 18.7493 88.6073 19.496C88.6073 20.2427 88.3406 20.8827 87.8073 21.416C87.2739 21.9493 86.6339 22.216 85.8873 22.216H80.6393C79.8926 22.216 79.2526 22.4827 78.7193 23.016C78.2073 23.528 77.9513 24.1467 77.9513 24.872C77.9513 25.5973 78.2073 26.2267 78.7193 26.76C79.2526 27.2933 79.8926 27.56 80.6393 27.56H85.8873C86.6339 27.56 87.2739 27.8267 87.8073 28.36C88.3406 28.8933 88.6073 29.5333 88.6073 30.28ZM105.927 30.28C105.927 31.0267 105.66 31.6667 105.127 32.2C104.593 32.7333 103.953 33 103.207 33C102.46 33 101.82 32.7333 101.287 32.2C100.753 31.6667 100.487 31.0267 100.487 30.28V24.84C100.487 24.0933 100.22 23.464 99.6865 22.952C99.1745 22.4187 98.5558 22.152 97.8305 22.152C97.1052 22.152 96.4758 22.4187 95.9425 22.952C95.4092 23.4853 95.1425 24.1147 95.1425 24.84V30.28C95.1425 31.0267 94.8758 31.6667 94.3425 32.2C93.8092 32.7333 93.1692 33 92.4225 33C91.6758 33 91.0358 32.7333 90.5025 32.2C89.9692 31.6667 89.7025 31.0267 89.7025 30.28V13.992C89.7025 13.2453 89.9692 12.6053 90.5025 12.072C91.0358 11.5387 91.6758 11.272 92.4225 11.272C93.1692 11.272 93.8092 11.5387 94.3425 12.072C94.8758 12.6053 95.1425 13.2453 95.1425 13.992V17.16C96.0385 16.8613 96.9345 16.712 97.8305 16.712C100.071 16.712 101.98 17.512 103.559 19.112C105.137 20.6907 105.927 22.6 105.927 24.84V30.28ZM123.651 30.28C123.651 31.0267 123.384 31.6667 122.851 32.2C122.317 32.7333 121.677 33 120.931 33H115.523C113.283 33 111.373 32.2107 109.795 30.632C108.216 29.032 107.427 27.112 107.427 24.872C107.427 22.632 108.216 20.7227 109.795 19.144C111.373 17.5653 113.283 16.776 115.523 16.776C117.763 16.776 119.672 17.5653 121.251 19.144C122.851 20.7227 123.651 22.632 123.651 24.872V30.28ZM118.211 27.56V24.872C118.211 24.1467 117.944 23.528 117.411 23.016C116.877 22.4827 116.248 22.216 115.523 22.216C114.776 22.216 114.147 22.472 113.635 22.984C113.123 23.496 112.867 24.1253 112.867 24.872C112.867 25.6187 113.123 26.2587 113.635 26.792C114.147 27.304 114.776 27.56 115.523 27.56H118.211ZM141.461 30.28C141.461 31.0267 141.194 31.6667 140.661 32.2C140.127 32.7333 139.487 33 138.741 33C137.994 33 137.354 32.7333 136.821 32.2C136.287 31.6667 136.021 31.0267 136.021 30.28V24.872C136.021 24.1253 135.754 23.496 135.221 22.984C134.709 22.4507 134.09 22.184 133.365 22.184C132.639 22.184 132.01 22.4507 131.477 22.984C130.943 23.496 130.677 24.1253 130.677 24.872V30.28C130.677 31.0267 130.41 31.6667 129.877 32.2C129.343 32.7333 128.703 33 127.957 33C127.21 33 126.57 32.7333 126.037 32.2C125.503 31.6667 125.237 31.0267 125.237 30.28V24.872C125.237 22.632 126.026 20.7227 127.605 19.144C129.205 17.544 131.125 16.744 133.365 16.744C135.605 16.744 137.514 17.544 139.093 19.144C140.671 20.7227 141.461 22.632 141.461 24.872V30.28ZM159.211 30.28C159.211 31.0267 158.944 31.6667 158.411 32.2C157.877 32.7333 157.237 33 156.491 33C155.744 33 155.104 32.7333 154.571 32.2C154.037 31.6667 153.771 31.0267 153.771 30.28V24.872C153.771 24.1253 153.504 23.496 152.971 22.984C152.459 22.4507 151.84 22.184 151.115 22.184C150.389 22.184 149.76 22.4507 149.227 22.984C148.693 23.496 148.427 24.1253 148.427 24.872V30.28C148.427 31.0267 148.16 31.6667 147.627 32.2C147.093 32.7333 146.453 33 145.707 33C144.96 33 144.32 32.7333 143.787 32.2C143.253 31.6667 142.987 31.0267 142.987 30.28V24.872C142.987 22.632 143.776 20.7227 145.355 19.144C146.955 17.544 148.875 16.744 151.115 16.744C153.355 16.744 155.264 17.544 156.843 19.144C158.421 20.7227 159.211 22.632 159.211 24.872V30.28ZM176.897 30.28C176.897 31.0267 176.63 31.6667 176.097 32.2C175.563 32.7333 174.923 33 174.177 33H168.833C166.593 33 164.673 32.2107 163.073 30.632C161.494 29.032 160.705 27.112 160.705 24.872C160.705 22.632 161.494 20.7227 163.073 19.144C164.673 17.544 166.593 16.744 168.833 16.744C170.731 16.744 172.406 17.3307 173.857 18.504C175.329 19.6773 176.289 21.192 176.737 23.048C176.779 23.176 176.801 23.3787 176.801 23.656C176.801 24.4027 176.534 25.0427 176.001 25.576C175.467 26.1093 174.827 26.376 174.081 26.376C172.715 26.376 171.819 25.6827 171.393 24.296C170.987 22.9093 170.134 22.216 168.833 22.216C168.086 22.216 167.446 22.4827 166.913 23.016C166.401 23.528 166.145 24.1467 166.145 24.872C166.145 25.5973 166.401 26.2267 166.913 26.76C167.446 27.2933 168.086 27.56 168.833 27.56H174.177C174.923 27.56 175.563 27.8267 176.097 28.36C176.63 28.8933 176.897 29.5333 176.897 30.28ZM183.834 30.28C183.834 31.0267 183.567 31.6667 183.034 32.2C182.5 32.7333 181.86 33 181.114 33C180.367 33 179.727 32.7333 179.194 32.2C178.66 31.6667 178.394 31.0267 178.394 30.28V13.992C178.394 13.2453 178.66 12.6053 179.194 12.072C179.727 11.5387 180.367 11.272 181.114 11.272C181.86 11.272 182.5 11.5387 183.034 12.072C183.567 12.6053 183.834 13.2453 183.834 13.992V30.28Z" fill="#72C4F2"/>
</svg>
