<svg width="14" height="14" viewBox="0 0 14 14" fill="none" xmlns="http://www.w3.org/2000/svg">
<g clip-path="url(#clip0_144_10585)">
<path d="M7.00011 0.875C3.1337 0.875 0.000105771 3.4207 0.000105771 6.5625C0.000105771 7.86406 0.544246 9.05625 1.44659 10.016C1.03917 11.0934 0.191512 12.0066 0.17784 12.0176C-0.00262861 12.209 -0.0518474 12.4879 0.0520589 12.7285C0.155965 12.9691 0.393856 13.125 0.656356 13.125C2.338 13.125 3.66417 12.4223 4.45987 11.859C5.25011 12.1078 6.10323 12.25 7.00011 12.25C10.8665 12.25 14.0001 9.7043 14.0001 6.5625C14.0001 3.4207 10.8665 0.875 7.00011 0.875ZM7.00011 10.9375C6.27003 10.9375 5.54815 10.8254 4.85636 10.6066L4.23565 10.4098L3.70245 10.7871C3.31143 11.0633 2.7755 11.3723 2.13018 11.5801C2.32979 11.2492 2.52393 10.8773 2.67432 10.4809L2.87587 9.94657C2.92989 9.80338 2.89746 9.64191 2.79234 9.53067L2.40089 9.11641C1.90597 8.58867 1.31261 7.71641 1.31261 6.5625C1.31261 4.15078 3.86378 2.1875 7.00011 2.1875C10.1364 2.1875 12.6876 4.15078 12.6876 6.5625C12.6876 8.97422 10.1364 10.9375 7.00011 10.9375Z" fill="#333333"/>
</g>
<defs>
<clipPath id="clip0_144_10585">
<rect width="14" height="14" fill="white"/>
</clipPath>
</defs>
</svg>
