<svg width="20" height="16" viewBox="0 0 20 16" fill="none" xmlns="http://www.w3.org/2000/svg">
<path fill-rule="evenodd" clip-rule="evenodd" d="M19.2741 2.6968C19.7085 2.26346 19.7085 1.55899 19.2741 1.12565C18.8407 0.69119 18.1374 0.69119 17.7029 1.12565L5.9759 12.8527L2.2969 9.17477C1.86356 8.74031 1.15909 8.74031 0.725745 9.17477C0.291288 9.60923 0.291288 10.3126 0.725745 10.7459L5.13476 15.1561C5.15254 15.1749 5.16921 15.1938 5.1881 15.2116C5.40477 15.4294 5.68922 15.5372 5.97368 15.5372C6.02701 15.5372 6.08035 15.5338 6.13368 15.5261C6.36369 15.4938 6.58592 15.3894 6.76259 15.2116C6.78148 15.1938 6.79925 15.1749 6.81592 15.1549L19.2741 2.6968Z" fill="#3D8AFF"/>
</svg>
