<svg width="current" height="current" viewBox="0 0 14 14" fill="none" xmlns="http://www.w3.org/2000/svg">
<path d="M8.75 7C8.75 7.46413 8.56563 7.90925 8.23744 8.23744C7.90925 8.56563 7.46413 8.75 7 8.75C6.53587 8.75 6.09075 8.56563 5.76256 8.23744C5.43437 7.90925 5.25 7.46413 5.25 7C5.25 6.53587 5.43437 6.09075 5.76256 5.76256C6.09075 5.43437 6.53587 5.25 7 5.25C7.46413 5.25 7.90925 5.43437 8.23744 5.76256C8.56563 6.09075 8.75 6.53587 8.75 7V7Z" stroke="#333333" stroke-width="1.5" stroke-linecap="round" stroke-linejoin="round"/>
<path d="M1.43384 6.99999C2.177 4.63341 4.38842 2.91666 7 2.91666C9.61217 2.91666 11.823 4.63341 12.5662 6.99999C11.823 9.36657 9.61217 11.0833 7 11.0833C4.38842 11.0833 2.177 9.36657 1.43384 6.99999Z" stroke="#333333" stroke-width="1.5" stroke-linecap="round" stroke-linejoin="round"/>
</svg>
