<svg width="14" height="14" viewBox="0 0 14 14" fill="none" xmlns="http://www.w3.org/2000/svg">
<path d="M11.6667 4.66666H8.39308L9.04816 2.70257C9.166 2.34791 9.1065 1.95474 8.88775 1.65141C8.669 1.34807 8.31433 1.16666 7.94041 1.16666H7.00008C6.82683 1.16666 6.66291 1.24366 6.5515 1.37666L3.80983 4.66666H2.33341C1.69 4.66666 1.16675 5.18991 1.16675 5.83332V11.0833C1.16675 11.7267 1.69 12.25 2.33341 12.25H10.0958C10.3332 12.2492 10.5647 12.1764 10.7598 12.0412C10.9549 11.906 11.1043 11.7148 11.1884 11.4928L12.7967 7.20474C12.8211 7.13924 12.8335 7.06989 12.8334 6.99999V5.83332C12.8334 5.18991 12.3102 4.66666 11.6667 4.66666ZM2.33341 5.83332H3.50008V11.0833H2.33341V5.83332ZM11.6667 6.89441L10.0958 11.0833H4.66675V5.46116L7.27308 2.33332H7.94158L7.03041 5.06507C7.00084 5.15276 6.99258 5.24623 7.00635 5.33774C7.02011 5.42925 7.05549 5.51616 7.10955 5.59126C7.16361 5.66637 7.2348 5.7275 7.31721 5.7696C7.39962 5.8117 7.49088 5.83354 7.58341 5.83332H11.6667V6.89441Z" fill="#333333"/>
</svg>
