<svg width="18" height="17" viewBox="0 0 18 17" fill="none" xmlns="http://www.w3.org/2000/svg">
<path d="M15.667 5.66699H10.9903L11.9262 2.86116C12.0945 2.35449 12.0095 1.79283 11.697 1.35949C11.3845 0.926159 10.8778 0.666992 10.3437 0.666992H9.00033C8.75283 0.666992 8.51866 0.776992 8.35949 0.966992L4.44283 5.66699H2.33366C1.41449 5.66699 0.666992 6.41449 0.666992 7.33366V14.8337C0.666992 15.7528 1.41449 16.5003 2.33366 16.5003H13.4228C13.7619 16.4992 14.0926 16.3952 14.3713 16.2021C14.65 16.0089 14.8636 15.7357 14.9837 15.4187L17.2812 9.29283C17.316 9.19926 17.3338 9.10018 17.3337 9.00033V7.33366C17.3337 6.41449 16.5862 5.66699 15.667 5.66699ZM2.33366 7.33366H4.00033V14.8337H2.33366V7.33366ZM15.667 8.84949L13.4228 14.8337H5.66699V6.80199L9.39033 2.33366H10.3453L9.04366 6.23616C9.0014 6.36142 8.98962 6.49495 9.00928 6.62568C9.02894 6.75641 9.07948 6.88057 9.15671 6.98786C9.23394 7.09515 9.33564 7.18249 9.45337 7.24263C9.57109 7.30276 9.70146 7.33397 9.83366 7.33366H15.667V8.84949Z" fill="white"/>
</svg>
