<svg width="24" height="24" viewBox="0 0 24 24" fill="none" xmlns="http://www.w3.org/2000/svg">
<path d="M15 19C15 19.7956 14.6839 20.5587 14.1213 21.1213C13.5587 21.6839 12.7956 22 12 22C11.2043 22 10.4413 21.6839 9.87867 21.1213C9.31606 20.5587 8.99999 19.7956 8.99999 19M12.721 5.00299L11.255 4.99999C7.91099 4.99199 5.00799 7.70899 4.98499 11V14.79C4.98499 15.58 4.88499 16.351 4.45399 17.008L4.16699 17.446C3.72999 18.11 4.19999 19 4.98499 19H19.015C19.8 19 20.269 18.11 19.833 17.446L19.546 17.008C19.116 16.351 19.015 15.579 19.015 14.789V11.001C18.975 7.70899 16.065 5.01099 12.721 5.00299V5.00299Z" stroke="#4F4C4C" stroke-width="2" stroke-linecap="round" stroke-linejoin="round"/>
<path d="M12 2C12.5304 2 13.0391 2.21071 13.4142 2.58579C13.7893 2.96086 14 3.46957 14 4V5H10V4C10 3.46957 10.2107 2.96086 10.5858 2.58579C10.9609 2.21071 11.4696 2 12 2Z" stroke="#4F4C4C" stroke-width="2" stroke-linecap="round" stroke-linejoin="round"/>
</svg>
