<svg width="24" height="24" viewBox="0 0 24 24" fill="none" xmlns="http://www.w3.org/2000/svg">
<path fill-rule="evenodd" clip-rule="evenodd" d="M21.2742 6.69699C21.7086 6.26364 21.7086 5.55918 21.2742 5.12583C20.8408 4.69137 20.1375 4.69137 19.703 5.12583L7.97602 16.8528L4.29702 13.175C3.86368 12.7405 3.15921 12.7405 2.72587 13.175C2.29141 13.6094 2.29141 14.3128 2.72587 14.7461L7.13488 19.1562C7.15266 19.1751 7.16933 19.194 7.18822 19.2118C7.40489 19.4296 7.68934 19.5374 7.9738 19.5374C8.02713 19.5374 8.08047 19.534 8.1338 19.5262C8.36381 19.494 8.58604 19.3896 8.76271 19.2118C8.7816 19.194 8.79938 19.1751 8.81604 19.1551L21.2742 6.69699Z" fill="#4F4C4C"/>
</svg>
