<svg width="24" height="24" viewBox="0 0 24 24" fill="none" xmlns="http://www.w3.org/2000/svg">
<path fill-rule="evenodd" clip-rule="evenodd" d="M9.66007 4.44602C9.8176 4.28849 10.0313 4.19999 10.254 4.19999H13.734C13.9568 4.19999 14.1705 4.28849 14.328 4.44602C14.4855 4.60355 14.574 4.81721 14.574 5.03999V5.87999H9.41403V5.03999C9.41403 4.81721 9.50253 4.60355 9.66007 4.44602ZM7.61403 5.87999V5.03999C7.61403 4.33982 7.89218 3.66833 8.38727 3.17323C8.88237 2.67814 9.55386 2.39999 10.254 2.39999H13.734C14.4342 2.39999 15.1057 2.67814 15.6008 3.17323C16.0959 3.66833 16.374 4.33982 16.374 5.03999V5.87999H19.824C20.3211 5.87999 20.724 6.28293 20.724 6.77999C20.724 7.27704 20.3211 7.67999 19.824 7.67999H18.984V18.96C18.984 19.6602 18.7059 20.3317 18.2108 20.8268C17.7157 21.3219 17.0442 21.6 16.344 21.6H7.64403C6.94386 21.6 6.27237 21.3219 5.77727 20.8268C5.28218 20.3317 5.00403 19.6602 5.00403 18.96V7.67999H4.16404C3.66698 7.67999 3.26404 7.27704 3.26404 6.77999C3.26404 6.28293 3.66698 5.87999 4.16404 5.87999H7.61403ZM6.80403 18.96V7.67999H17.184V18.96C17.184 19.1828 17.0955 19.3964 16.938 19.554C16.7805 19.7115 16.5668 19.8 16.344 19.8H7.64403C7.42125 19.8 7.2076 19.7115 7.05006 19.554C6.89253 19.3964 6.80403 19.1828 6.80403 18.96ZM10.2541 10.23C10.7511 10.23 11.1541 10.633 11.1541 11.13V16.35C11.1541 16.8471 10.7511 17.25 10.2541 17.25C9.757 17.25 9.35405 16.8471 9.35405 16.35V11.13C9.35405 10.633 9.757 10.23 10.2541 10.23ZM14.634 11.13C14.634 10.633 14.2311 10.23 13.734 10.23C13.237 10.23 12.834 10.633 12.834 11.13V16.35C12.834 16.8471 13.237 17.25 13.734 17.25C14.2311 17.25 14.634 16.8471 14.634 16.35V11.13Z" fill="#4F4C4C"/>
</svg>
