<svg width="24" height="24" viewBox="0 0 24 24" fill="none" xmlns="http://www.w3.org/2000/svg">
<path fill-rule="evenodd" clip-rule="evenodd" d="M18.218 4.19999C18.0103 4.19999 17.8045 4.24091 17.6126 4.32042C17.4207 4.39992 17.2462 4.51645 17.0993 4.66336L15.6916 6.07106L17.929 8.30838L19.3367 6.90067C19.4836 6.75377 19.6001 6.57937 19.6796 6.38743C19.7591 6.19549 19.8 5.98977 19.8 5.78201C19.8 5.57426 19.7591 5.36854 19.6796 5.1766C19.6001 4.98466 19.4836 4.81026 19.3367 4.66336C19.1898 4.51645 19.0154 4.39992 18.8234 4.32042C18.6315 4.24091 18.4258 4.19999 18.218 4.19999ZM16.6562 9.58117L14.4188 7.34385L5.42173 16.341L4.58274 19.4173L7.65905 18.5783L16.6562 9.58117ZM16.9238 2.65743C17.3341 2.48747 17.7739 2.39999 18.218 2.39999C18.6621 2.39999 19.1019 2.48747 19.5122 2.65743C19.9226 2.8274 20.2954 3.07651 20.6095 3.39056C20.9235 3.70461 21.1726 4.07744 21.3426 4.48777C21.5125 4.8981 21.6 5.33788 21.6 5.78201C21.6 6.22615 21.5125 6.66593 21.3426 7.07626C21.1726 7.48658 20.9235 7.85942 20.6095 8.17346L8.76284 20.0201C8.65209 20.1308 8.51435 20.2108 8.36325 20.252L3.53685 21.5683C3.22526 21.6532 2.89202 21.5647 2.66365 21.3364C2.43527 21.108 2.34678 20.7748 2.43176 20.4632L3.74805 15.6368C3.78926 15.4857 3.86919 15.3479 3.97994 15.2372L15.8266 3.39056C16.1406 3.07651 16.5134 2.8274 16.9238 2.65743Z" fill="#4F4C4C"/>
</svg>
