<svg width="24" height="24" viewBox="0 0 24 24" fill="none" xmlns="http://www.w3.org/2000/svg">
<path d="M4.22196 19.778C4.68584 20.2425 5.23693 20.6108 5.84358 20.8617C6.45023 21.1126 7.10048 21.2412 7.75696 21.24C8.41359 21.2411 9.06398 21.1126 9.67079 20.8617C10.2776 20.6108 10.8289 20.2425 11.293 19.778L13.4142 17.656C13.8046 17.2655 13.8045 16.6325 13.4141 16.2421C13.0236 15.8516 12.3904 15.8517 12 16.2422L9.87896 18.364C9.31543 18.925 8.55263 19.24 7.75746 19.24C6.96229 19.24 6.19949 18.925 5.63596 18.364C5.07447 17.8007 4.75917 17.0378 4.75917 16.2425C4.75917 15.4472 5.07447 14.6843 5.63596 14.121L7.75771 12C8.1483 11.6095 8.14835 10.9764 7.75784 10.5859C7.36742 10.1955 6.73445 10.1954 6.34396 10.5857L4.22196 12.707C3.28577 13.6454 2.76001 14.9169 2.76001 16.2425C2.76001 17.5681 3.28577 18.8395 4.22196 19.778ZM19.778 11.293C20.7137 10.3543 21.2391 9.08291 21.2391 7.75749C21.2391 6.43207 20.7137 5.16071 19.778 4.22199C18.8395 3.2858 17.568 2.76004 16.2425 2.76004C14.9169 2.76004 13.6454 3.2858 12.707 4.22199L10.5857 6.34399C10.1954 6.73448 10.1954 7.36745 10.5858 7.75787C10.9764 8.14838 11.6095 8.14833 12 7.75774L14.121 5.63599C14.6845 5.07498 15.4473 4.76002 16.2425 4.76002C17.0376 4.76002 17.8004 5.07498 18.364 5.63599C18.9255 6.19926 19.2408 6.96216 19.2408 7.75749C19.2408 8.55282 18.9255 9.31572 18.364 9.87899L16.2422 12C15.8516 12.3904 15.8516 13.0236 16.2421 13.4141C16.6325 13.8045 17.2655 13.8046 17.656 13.4142L19.778 11.293Z" fill="#4F4C4C"/>
<path d="M9.17081 16.2432C8.78037 16.6336 8.14729 16.6336 7.75674 16.2433C7.36597 15.8528 7.36573 15.2192 7.75639 14.8286L14.8286 7.75726C15.2192 7.36668 15.8527 7.36695 16.2432 7.7577C16.6335 8.14828 16.6335 8.78142 16.243 9.17184L9.17081 16.2432Z" fill="#4F4C4C"/>
</svg>
