<svg width="24" height="24" viewBox="0 0 24 24" fill="none" xmlns="http://www.w3.org/2000/svg">
<path fill-rule="evenodd" clip-rule="evenodd" d="M6.30249 5.7C6.30249 5.20295 6.70543 4.8 7.20249 4.8H20.7C21.1971 4.8 21.6 5.20295 21.6 5.7C21.6 6.19706 21.1971 6.6 20.7 6.6H7.20249C6.70543 6.6 6.30249 6.19706 6.30249 5.7Z" fill="#4F4C4C"/>
<path fill-rule="evenodd" clip-rule="evenodd" d="M6.30249 11.9296C6.30249 11.4326 6.70543 11.0296 7.20249 11.0296H20.7C21.1971 11.0296 21.6 11.4326 21.6 11.9296C21.6 12.4267 21.1971 12.8296 20.7 12.8296H7.20249C6.70543 12.8296 6.30249 12.4267 6.30249 11.9296Z" fill="#4F4C4C"/>
<path fill-rule="evenodd" clip-rule="evenodd" d="M6.30249 18.1592C6.30249 17.6622 6.70543 17.2592 7.20249 17.2592H20.7C21.1971 17.2592 21.6 17.6622 21.6 18.1592C21.6 18.6563 21.1971 19.0592 20.7 19.0592H7.20249C6.70543 19.0592 6.30249 18.6563 6.30249 18.1592Z" fill="#4F4C4C"/>
<path fill-rule="evenodd" clip-rule="evenodd" d="M2.40002 5.7C2.40002 5.20295 2.80297 4.8 3.30002 4.8H3.30969C3.80675 4.8 4.20969 5.20295 4.20969 5.7C4.20969 6.19706 3.80675 6.6 3.30969 6.6H3.30002C2.80297 6.6 2.40002 6.19706 2.40002 5.7Z" fill="#4F4C4C"/>
<path fill-rule="evenodd" clip-rule="evenodd" d="M2.40002 11.9296C2.40002 11.4326 2.80297 11.0296 3.30002 11.0296H3.30969C3.80675 11.0296 4.20969 11.4326 4.20969 11.9296C4.20969 12.4267 3.80675 12.8296 3.30969 12.8296H3.30002C2.80297 12.8296 2.40002 12.4267 2.40002 11.9296Z" fill="#4F4C4C"/>
<path fill-rule="evenodd" clip-rule="evenodd" d="M2.40002 18.1592C2.40002 17.6622 2.80297 17.2592 3.30002 17.2592H3.30969C3.80675 17.2592 4.20969 17.6622 4.20969 18.1592C4.20969 18.6563 3.80675 19.0592 3.30969 19.0592H3.30002C2.80297 19.0592 2.40002 18.6563 2.40002 18.1592Z" fill="#4F4C4C"/>
</svg>
