<svg width="24" height="24" viewBox="0 0 24 24" fill="none" xmlns="http://www.w3.org/2000/svg">
<path fill-rule="evenodd" clip-rule="evenodd" d="M4 0C1.79086 0 0 1.79086 0 4V20C0 22.2091 1.79086 24 4 24H20C22.2091 24 24 22.2091 24 20V4C24 1.79086 22.2091 0 20 0H4ZM4.48809 3.43056C4.26571 3.23994 3.95271 3.19623 3.68661 3.31862C3.42051 3.441 3.25 3.7071 3.25 4V11C3.25 11.4142 3.58579 11.75 4 11.75C4.41421 11.75 4.75 11.4142 4.75 11V5.63067L7.01191 7.56944C7.29277 7.81019 7.70723 7.81019 7.98809 7.56944L10.25 5.63067V11C10.25 11.4142 10.5858 11.75 11 11.75C11.4142 11.75 11.75 11.4142 11.75 11V4C11.75 3.7071 11.5795 3.441 11.3134 3.31862C11.0473 3.19623 10.7343 3.23994 10.5119 3.43056L7.5 6.01219L4.48809 3.43056ZM13 3.25C12.5858 3.25 12.25 3.58579 12.25 4V11C12.25 11.4142 12.5858 11.75 13 11.75H19C19.1989 11.75 19.3897 11.671 19.5303 11.5303C19.9972 11.0634 20.0978 10.4264 20.036 9.8703C19.9735 9.30767 19.74 8.72781 19.4018 8.21312C19.1302 7.79978 18.7698 7.39867 18.3356 7.06791C18.6411 6.85784 18.9013 6.60971 19.1145 6.33871C19.7166 5.57331 19.9787 4.56441 19.7115 3.76283C19.6094 3.45657 19.3228 3.25 19 3.25H15.5H13ZM17.9355 5.41129C17.5871 5.85425 16.9716 6.25 16 6.25C15.5858 6.25 15.25 6.58579 15.25 7C15.25 7.41421 15.5858 7.75 16 7.75C16.8763 7.75 17.6676 8.30555 18.1482 9.03688C18.385 9.39719 18.514 9.75483 18.5452 10.0359C18.5548 10.1221 18.5548 10.1926 18.5493 10.25H13.75V4.75H15.5H18.2716C18.2197 4.95068 18.1161 5.18171 17.9355 5.41129ZM4 12.25C3.58579 12.25 3.25 12.5858 3.25 13C3.25 13.4142 3.58579 13.75 4 13.75H6.75V20C6.75 20.4142 7.08579 20.75 7.5 20.75C7.91421 20.75 8.25 20.4142 8.25 20V13.75H11C11.4142 13.75 11.75 13.4142 11.75 13C11.75 12.5858 11.4142 12.25 11 12.25H7.5H4ZM14 12.25C13.5858 12.25 13.25 12.5858 13.25 13C13.25 13.4142 13.5858 13.75 14 13.75H15.25V19.25H14C13.5858 19.25 13.25 19.5858 13.25 20C13.25 20.4142 13.5858 20.75 14 20.75H16H18C18.4142 20.75 18.75 20.4142 18.75 20C18.75 19.5858 18.4142 19.25 18 19.25H16.75V13.75H18C18.4142 13.75 18.75 13.4142 18.75 13C18.75 12.5858 18.4142 12.25 18 12.25H16H14Z" fill="#333333"/>
</svg>
