<svg width="24" height="24" viewBox="0 0 24 24" fill="none" xmlns="http://www.w3.org/2000/svg">
<path d="M19 4C19.5523 4 20 4.44772 20 5V15C20 15.5523 19.5523 16 19 16H9C8.44771 16 8 15.5523 8 15V5C8 4.44772 8.44772 4 9 4H19ZM20 2H8C6.9 2 6 2.9 6 4V16C6 17.1 6.9 18 8 18H20C21.1 18 22 17.1 22 16V4C22 2.9 21.1 2 20 2ZM11.1795 12.0969C11.3397 11.8835 11.6599 11.8839 11.8197 12.0975L12.8803 13.5159C13.0371 13.7255 13.3495 13.7306 13.513 13.5262L15.3574 11.2208C15.5176 11.0205 15.8222 11.0206 15.9823 11.2211L18.4813 14.3504C18.6904 14.6124 18.5039 15 18.1687 15H9.80048C9.47077 15 9.28265 14.6235 9.4806 14.3598L11.1795 12.0969ZM3 6C2.44772 6 2 6.44772 2 7V20C2 21.1 2.9 22 4 22H17C17.5523 22 18 21.5523 18 21C18 20.4477 17.5523 20 17 20H5C4.44772 20 4 19.5523 4 19V7C4 6.44772 3.55228 6 3 6Z" fill="#4F4C4C"/>
</svg>
