<svg width="24" height="24" viewBox="0 0 24 24" fill="none" xmlns="http://www.w3.org/2000/svg">
<path d="M22 16V4C22 2.9 21.1 2 20 2H8C6.9 2 6 2.9 6 4V16C6 17.1 6.9 18 8 18H20C21.1 18 22 17.1 22 16ZM11.4 12.53L13.03 14.71L15.61 11.49C15.6569 11.4316 15.7162 11.3845 15.7837 11.3521C15.8512 11.3197 15.9251 11.3029 16 11.3029C16.0749 11.3029 16.1488 11.3197 16.2163 11.3521C16.2838 11.3845 16.3431 11.4316 16.39 11.49L19.35 15.19C19.61 15.52 19.38 16 18.96 16H9C8.90714 16 8.81612 15.9741 8.73713 15.9253C8.65815 15.8765 8.59431 15.8067 8.55279 15.7236C8.51126 15.6406 8.49368 15.5476 8.50202 15.4551C8.51036 15.3626 8.54429 15.2743 8.6 15.2L10.6 12.53C10.8 12.27 11.2 12.27 11.4 12.53ZM2 7V20C2 21.1 2.9 22 4 22H17C17.55 22 18 21.55 18 21C18 20.45 17.55 20 17 20H5C4.45 20 4 19.55 4 19V7C4 6.45 3.55 6 3 6C2.45 6 2 6.45 2 7Z" fill="#4F4C4C"/>
</svg>
