<svg width="24" height="24" viewBox="0 0 24 24" fill="none" xmlns="http://www.w3.org/2000/svg">
<path d="M12 20.725C11.8333 20.725 11.6706 20.7043 11.512 20.663C11.354 20.621 11.2 20.5583 11.05 20.475L6.04995 17.775C5.71662 17.5917 5.45828 17.346 5.27495 17.038C5.09162 16.7293 4.99995 16.3833 4.99995 16V11.2L2.59995 9.87499C2.41662 9.77499 2.28328 9.64999 2.19995 9.49999C2.11662 9.34999 2.07495 9.18333 2.07495 8.99999C2.07495 8.81666 2.11662 8.64999 2.19995 8.49999C2.28328 8.34999 2.41662 8.22499 2.59995 8.12499L11.05 3.52499C11.2 3.44166 11.354 3.37899 11.512 3.33699C11.6706 3.29566 11.8333 3.27499 12 3.27499C12.1666 3.27499 12.3293 3.29566 12.488 3.33699C12.646 3.37899 12.8 3.44166 12.95 3.52499L22.475 8.72499C22.6416 8.80833 22.771 8.92899 22.863 9.08699C22.9543 9.24566 23 9.41666 23 9.59999V16C23 16.2833 22.9039 16.5207 22.712 16.712C22.5206 16.904 22.2833 17 22 17C21.7166 17 21.4793 16.904 21.288 16.712C21.096 16.5207 21 16.2833 21 16V10.1L19 11.2V16C19 16.3833 18.9083 16.7293 18.725 17.038C18.5416 17.346 18.2833 17.5917 17.95 17.775L12.95 20.475C12.8 20.5583 12.646 20.621 12.488 20.663C12.3293 20.7043 12.1666 20.725 12 20.725ZM12 12.7L18.85 8.99999L12 5.29999L5.14995 8.99999L12 12.7ZM12 18.725L17 16.025V12.25L12.975 14.475C12.825 14.5583 12.6666 14.6207 12.5 14.662C12.3333 14.704 12.1666 14.725 12 14.725C11.8333 14.725 11.6666 14.704 11.5 14.662C11.3333 14.6207 11.175 14.5583 11.025 14.475L6.99995 12.25V16.025L12 18.725Z" fill="#4F4C4C"/>
</svg>
