<svg width="24" height="24" viewBox="0 0 24 24" fill="none" xmlns="http://www.w3.org/2000/svg">
<path fill-rule="evenodd" clip-rule="evenodd" d="M4.3501 10.8C4.3501 7.23776 7.23786 4.35 10.8001 4.35C14.3623 4.35 17.2501 7.23776 17.2501 10.8C17.2501 14.3622 14.3623 17.25 10.8001 17.25C7.23786 17.25 4.3501 14.3622 4.3501 10.8ZM10.8001 2.85C6.40943 2.85 2.8501 6.40933 2.8501 10.8C2.8501 15.1907 6.40943 18.75 10.8001 18.75C12.7254 18.75 14.4908 18.0656 15.8663 16.9269L20.1692 21.2298C20.4621 21.5227 20.937 21.5227 21.2299 21.2298C21.5228 20.9369 21.5228 20.462 21.2299 20.1691L16.927 15.8662C18.0657 14.4907 18.7501 12.7253 18.7501 10.8C18.7501 6.40933 15.1908 2.85 10.8001 2.85Z" fill="#4F4C4C"/>
</svg>
