<svg width="24" height="24" viewBox="0 0 24 24" fill="none" xmlns="http://www.w3.org/2000/svg">
<path d="M7.26562 8.48436C7.16075 8.37984 7.07753 8.25565 7.02075 8.11891C6.96397 7.98216 6.93474 7.83555 6.93474 7.68749C6.93474 7.53942 6.96397 7.39281 7.02075 7.25606C7.07753 7.11932 7.16075 6.99513 7.26562 6.89061L11.2031 2.95311C11.3076 2.84823 11.4318 2.76501 11.5686 2.70823C11.7053 2.65145 11.8519 2.62222 12 2.62222C12.1481 2.62222 12.2947 2.65145 12.4314 2.70823C12.5682 2.76501 12.6924 2.84823 12.7969 2.95311L16.7344 6.89061C16.8393 6.99513 16.9225 7.11932 16.9793 7.25606C17.036 7.39281 17.0653 7.53942 17.0653 7.68749C17.0653 7.83555 17.036 7.98216 16.9793 8.11891C16.9225 8.25565 16.8393 8.37984 16.7344 8.48436C16.5221 8.6939 16.2358 8.8114 15.9375 8.8114C15.6392 8.8114 15.3529 8.6939 15.1406 8.48436L13.125 6.46874V14.25C13.125 14.5484 13.0065 14.8345 12.7955 15.0455C12.5845 15.2565 12.2984 15.375 12 15.375C11.7016 15.375 11.4155 15.2565 11.2045 15.0455C10.9935 14.8345 10.875 14.5484 10.875 14.25V6.46874L8.85938 8.48436C8.75486 8.58924 8.63067 8.67246 8.49392 8.72924C8.35717 8.78602 8.21057 8.81525 8.0625 8.81525C7.91443 8.81525 7.76783 8.78602 7.63108 8.72924C7.49433 8.67246 7.37014 8.58924 7.26562 8.48436ZM20.25 13.125C19.9516 13.125 19.6655 13.2435 19.4545 13.4545C19.2435 13.6655 19.125 13.9516 19.125 14.25V19.125H4.875V14.25C4.875 13.9516 4.75647 13.6655 4.5455 13.4545C4.33452 13.2435 4.04837 13.125 3.75 13.125C3.45163 13.125 3.16548 13.2435 2.9545 13.4545C2.74353 13.6655 2.625 13.9516 2.625 14.25V19.5C2.62746 19.9965 2.8258 20.472 3.1769 20.8231C3.528 21.1742 4.00348 21.3725 4.5 21.375H19.5C19.9965 21.3725 20.472 21.1742 20.8231 20.8231C21.1742 20.472 21.3725 19.9965 21.375 19.5V14.25C21.375 13.9516 21.2565 13.6655 21.0455 13.4545C20.8345 13.2435 20.5484 13.125 20.25 13.125Z" fill="#4F4C4C"/>
</svg>
