<svg width="24" height="24" viewBox="0 0 24 24" fill="none" xmlns="http://www.w3.org/2000/svg">
<path d="M10.8 10.2C10.8 10.0409 10.8633 9.88825 10.9758 9.77573C11.0883 9.66321 11.2409 9.59999 11.4 9.59999H15.6C15.7592 9.59999 15.9118 9.66321 16.0243 9.77573C16.1368 9.88825 16.2 10.0409 16.2 10.2C16.2 10.3591 16.1368 10.5117 16.0243 10.6243C15.9118 10.7368 15.7592 10.8 15.6 10.8H11.4C11.2409 10.8 11.0883 10.7368 10.9758 10.6243C10.8633 10.5117 10.8 10.3591 10.8 10.2ZM10.8 13.8C10.8 13.6409 10.8633 13.4883 10.9758 13.3757C11.0883 13.2632 11.2409 13.2 11.4 13.2H15.6C15.7592 13.2 15.9118 13.2632 16.0243 13.3757C16.1368 13.4883 16.2 13.6409 16.2 13.8C16.2 13.9591 16.1368 14.1117 16.0243 14.2243C15.9118 14.3368 15.7592 14.4 15.6 14.4H11.4C11.2409 14.4 11.0883 14.3368 10.9758 14.2243C10.8633 14.1117 10.8 13.9591 10.8 13.8ZM10.8 17.4C10.8 17.2409 10.8633 17.0883 10.9758 16.9757C11.0883 16.8632 11.2409 16.8 11.4 16.8H15.6C15.7592 16.8 15.9118 16.8632 16.0243 16.9757C16.1368 17.0883 16.2 17.2409 16.2 17.4C16.2 17.5591 16.1368 17.7117 16.0243 17.8243C15.9118 17.9368 15.7592 18 15.6 18H11.4C11.2409 18 11.0883 17.9368 10.9758 17.8243C10.8633 17.7117 10.8 17.5591 10.8 17.4ZM9.60005 10.2C9.60005 10.4387 9.50523 10.6676 9.33644 10.8364C9.16766 11.0052 8.93874 11.1 8.70005 11.1C8.46135 11.1 8.23244 11.0052 8.06365 10.8364C7.89487 10.6676 7.80005 10.4387 7.80005 10.2C7.80005 9.9613 7.89487 9.73238 8.06365 9.5636C8.23244 9.39482 8.46135 9.29999 8.70005 9.29999C8.93874 9.29999 9.16766 9.39482 9.33644 9.5636C9.50523 9.73238 9.60005 9.9613 9.60005 10.2ZM9.60005 13.8C9.60005 14.0387 9.50523 14.2676 9.33644 14.4364C9.16766 14.6052 8.93874 14.7 8.70005 14.7C8.46135 14.7 8.23244 14.6052 8.06365 14.4364C7.89487 14.2676 7.80005 14.0387 7.80005 13.8C7.80005 13.5613 7.89487 13.3324 8.06365 13.1636C8.23244 12.9948 8.46135 12.9 8.70005 12.9C8.93874 12.9 9.16766 12.9948 9.33644 13.1636C9.50523 13.3324 9.60005 13.5613 9.60005 13.8ZM8.70005 18.3C8.93874 18.3 9.16766 18.2052 9.33644 18.0364C9.50523 17.8676 9.60005 17.6387 9.60005 17.4C9.60005 17.1613 9.50523 16.9324 9.33644 16.7636C9.16766 16.5948 8.93874 16.5 8.70005 16.5C8.46135 16.5 8.23244 16.5948 8.06365 16.7636C7.89487 16.9324 7.80005 17.1613 7.80005 17.4C7.80005 17.6387 7.89487 17.8676 8.06365 18.0364C8.23244 18.2052 8.46135 18.3 8.70005 18.3ZM8.50205 3.59999C8.62618 3.2489 8.85615 2.94495 9.16026 2.73003C9.46437 2.51511 9.82766 2.3998 10.2 2.39999H13.8C14.1724 2.3998 14.5357 2.51511 14.8398 2.73003C15.1439 2.94495 15.3739 3.2489 15.498 3.59999H17.4C17.8774 3.59999 18.3353 3.78964 18.6728 4.1272C19.0104 4.46477 19.2 4.9226 19.2 5.39999V19.8C19.2 20.2774 19.0104 20.7352 18.6728 21.0728C18.3353 21.4104 17.8774 21.6 17.4 21.6H6.60005C6.12266 21.6 5.66482 21.4104 5.32726 21.0728C4.98969 20.7352 4.80005 20.2774 4.80005 19.8V5.39999C4.80005 4.9226 4.98969 4.46477 5.32726 4.1272C5.66482 3.78964 6.12266 3.59999 6.60005 3.59999H8.50205ZM10.2 3.59999C10.0409 3.59999 9.88831 3.66321 9.77578 3.77573C9.66326 3.88825 9.60005 4.04086 9.60005 4.19999C9.60005 4.35912 9.66326 4.51174 9.77578 4.62426C9.88831 4.73678 10.0409 4.79999 10.2 4.79999H13.8C13.9592 4.79999 14.1118 4.73678 14.2243 4.62426C14.3368 4.51174 14.4 4.35912 14.4 4.19999C14.4 4.04086 14.3368 3.88825 14.2243 3.77573C14.1118 3.66321 13.9592 3.59999 13.8 3.59999H10.2ZM8.50205 4.79999H6.60005C6.44092 4.79999 6.28831 4.86321 6.17578 4.97573C6.06326 5.08825 6.00005 5.24086 6.00005 5.39999V19.8C6.00005 19.9591 6.06326 20.1117 6.17578 20.2243C6.28831 20.3368 6.44092 20.4 6.60005 20.4H17.4C17.5592 20.4 17.7118 20.3368 17.8243 20.2243C17.9368 20.1117 18 19.9591 18 19.8V5.39999C18 5.24086 17.9368 5.08825 17.8243 4.97573C17.7118 4.86321 17.5592 4.79999 17.4 4.79999H15.498C15.3739 5.15109 15.1439 5.45504 14.8398 5.66996C14.5357 5.88488 14.1724 6.00019 13.8 5.99999H10.2C9.82766 6.00019 9.46437 5.88488 9.16026 5.66996C8.85615 5.45504 8.62618 5.15109 8.50205 4.79999Z" fill="#4F4C4C"/>
</svg>
